<svg width="1513" height="453" viewBox="0 0 1513 453" fill="none" xmlns="http://www.w3.org/2000/svg">
<path d="M733.298 339.848C734.301 325.588 737.738 319.193 751.538 316.655L751.585 316.717C752.566 318.017 753.13 318.765 753.537 319.897C745.339 325.727 742.282 330.544 736.546 340.846C735.685 340.923 734.934 340.658 733.298 339.848Z" fill="#FFF5D7"/>
<path fill-rule="evenodd" clip-rule="evenodd" d="M692.069 346.582C690.013 282.867 765.094 248.641 815.504 299.697C804.619 325.01 795.407 333.506 778.524 347.829C793.415 358.874 803.164 364.749 821.501 375.013C792.881 430.152 697.936 421.307 692.069 346.582ZM760.283 347.829C771.076 359.649 781.751 366.849 801.262 379.751C773.977 404.692 717.747 397.5 712.559 344.836C713.934 290.256 773.762 282.538 798.263 303.936C787.421 322.3 778.992 331.737 760.283 347.829Z" fill="#FFF5D7"/>
<path d="M829.323 374.015C829.745 373.162 830.144 372.791 831.072 372.269C836.173 376.562 841.234 378.672 840.567 383.741C839.412 386.358 838.359 386.479 836.569 386.983C835.854 381.328 833.22 378.491 829.323 374.015Z" fill="#FFF5D7"/>
<path d="M828.573 366.782C828.017 367.535 827.881 368.017 828.073 369.027C842.833 373.422 848.182 376.998 855.059 381.247C857.036 380.714 858.01 380.155 859.557 378.753C860.053 370.208 847.729 368.543 828.573 366.782Z" fill="#FFF5D7"/>
<path d="M827.074 292.963H852.429L852.56 324.386L873.549 292.963H912.029V357.804H886.407V326.88L866.053 357.804H827.035L827.074 292.963Z" fill="#FFF5D7"/>
<path fill-rule="evenodd" clip-rule="evenodd" d="M692.069 346.582C690.013 282.867 765.094 248.641 815.504 299.697C804.619 325.01 795.407 333.506 778.524 347.829C793.415 358.874 803.164 364.749 821.501 375.013C792.881 430.152 697.936 421.307 692.069 346.582ZM760.283 347.829C771.076 359.649 781.751 366.849 801.262 379.751C773.977 404.692 717.747 397.5 712.559 344.836C713.934 290.256 773.762 282.538 798.263 303.936C787.421 322.3 778.992 331.737 760.283 347.829Z" fill="#FFF5D7"/>
<path d="M827.074 292.963H852.429L852.56 324.386L873.549 292.963H912.029V357.804H886.407V326.88L866.053 357.804H827.035L827.074 292.963Z" fill="#FFF5D7"/>
<path d="M958.503 321.018H924.022C924.723 293.582 958.349 293.931 973.995 293.087C989.641 292.242 1018.18 297.167 1019.47 325.507C1020.76 353.848 978.83 359.719 972.246 357.928C940.518 356.513 924.898 348.11 924.022 329.498H958.503C962.613 335.09 966.419 336.348 974.495 336.979C982.662 336.777 985.651 335.804 988.987 332.989H972.496V318.026H988.987C986.236 315.51 983.915 314.357 974.495 314.035C965.301 314.101 962.355 316.132 958.503 321.018Z" fill="#FFF5D7"/>
<path fill-rule="evenodd" clip-rule="evenodd" d="M492.001 360.921C492.157 339.397 514.979 329.946 536.478 328.251C560.637 326.346 589.034 336.734 589.199 360.921C589.365 385.212 560.739 396.013 536.478 394.09C514.864 392.376 491.844 382.561 492.001 360.921ZM536.478 353.938C536.478 353.938 518.145 353.307 518.237 360.921C518.328 368.501 536.478 367.655 536.478 367.655C536.478 367.655 553.628 368.137 553.718 360.921C553.809 353.67 536.478 353.938 536.478 353.938Z" fill="#FFF5D7"/>
<path d="M600.693 393.342V328.999H634.175V358.926L654.165 328.999H679.151L660.411 358.926H670.656L692.894 393.342H657.663L643.92 372.144H634.675V393.342H600.693Z" fill="#FFF5D7"/>
<path fill-rule="evenodd" clip-rule="evenodd" d="M497.498 316.53V293.586H515.988C521.236 295.4 522.522 297.478 521.735 303.063C527.424 306.767 527.437 311.915 521.485 316.53H497.498ZM506.743 310.046C506.508 309.331 506.478 308.904 506.743 308.051C511.623 307.809 514.357 307.821 519.236 308.051C519.558 308.847 519.57 309.284 519.236 310.046C514.342 310.249 511.603 310.256 506.743 310.046ZM514.239 300.07C511.335 299.895 509.699 299.887 506.743 300.07C506.55 300.673 506.58 300.998 506.743 301.566C509.704 301.794 511.345 301.792 514.239 301.566C514.526 300.967 514.526 300.637 514.239 300.07Z" fill="#FFF5D7"/>
<path d="M542.224 294.085C535.436 294.43 528.88 298.276 528.731 305.058C528.58 311.965 535.311 316.174 542.224 316.53C549.592 316.909 557.374 312.42 557.216 305.058H547.721C547.77 308.079 545.714 309.593 542.224 309.547C539.058 309.505 535.31 308.214 535.478 305.058C535.64 302.006 539.164 300.944 542.224 301.068C545.466 301.199 547.522 302.458 547.721 305.058H557.216C557.061 297.813 549.475 293.716 542.224 294.085Z" fill="#FFF5D7"/>
<path d="M564.212 317.029V300.569H557.716V293.087H580.204V300.569H573.707V317.029H564.212Z" fill="#FFF5D7"/>
<path d="M635.175 317.029V300.569H628.678V293.087H651.666V300.569H645.169V317.029H635.175Z" fill="#FFF5D7"/>
<path d="M602.692 307.801H609.688C609.688 307.801 612.223 310.002 614.186 310.046C616.89 310.106 620.028 307.934 619.683 308.051H613.686V303.063H619.683C620.261 302.862 617.073 300.113 614.186 300.569C611.299 301.025 611.072 301.141 609.688 302.564H602.692C604.16 296.153 608.379 293.503 614.186 293.087C621.291 292.579 628.003 297.949 627.929 305.058C627.855 312.104 621.245 316.67 614.186 316.779C608.5 316.867 601.062 311.067 602.692 307.801Z" fill="#FFF5D7"/>
<path d="M667.158 293.586C660.124 294.063 653.516 298.522 653.665 305.557C653.811 312.464 660.251 316.564 667.158 317.029C674.674 317.534 682.495 313.074 682.65 305.557H673.155C672.024 308.129 669.972 309.494 667.158 309.547C664.262 309.601 661.144 308.438 660.911 305.557C660.665 302.508 664.094 300.758 667.158 300.818C670.144 300.877 672.412 302.669 673.155 305.557H682.65C682.806 297.922 674.791 293.068 667.158 293.586Z" fill="#FFF5D7"/>
<path d="M874.82 376.592V393.946H890.459V369H876.384L867.001 376.592H874.82Z" fill="#FFF5D7"/>
<path d="M932.685 369H899.843V385.269L900.024 385.267C909.073 385.148 914.201 385.081 923.302 385.269C923.879 385.559 923.832 385.808 923.302 386.354C914.139 386.812 909.004 386.734 899.843 386.354C897.226 387.308 906.157 394.699 917.828 393.946C928.877 393.234 933.385 391.32 935.813 385.812C937.6 381.758 926.062 377.825 924.866 377.677H909.227C908.735 377.329 908.574 377.117 909.227 376.592H932.685V369Z" fill="#FFF5D7"/>
<path d="M1003.52 382.87H996.3V378H1019V382.87H1011.78V394H1003.52V382.87Z" fill="#FFF5D7"/>
<path d="M970.504 394V378H993.204V382.87H978.759V383.565H990.109V388.435H978.759V389.13H993.204V394H970.504Z" fill="#FFF5D7"/>
<path d="M958.122 394V380.435L945.74 394H938.001L954.51 378H967.408V394H958.122Z" fill="#FFF5D7"/>
<path d="M104.857 160.954C118.028 146.257 127.194 142.197 144.398 151.125L144.397 151.232C144.366 153.481 144.348 154.775 143.833 156.354C129.953 155.762 122.537 158.424 107.556 164.794C106.551 164.148 105.956 163.224 104.857 160.954Z" fill="#E32C5D"/>
<path fill-rule="evenodd" clip-rule="evenodd" d="M54.1768 133.358C105.893 62.1498 216.788 88.4614 228.542 186.844C195.229 205.217 177.985 206.672 147.436 207.981C154.328 232.642 159.987 247.309 171.3 274.038C93.3805 309.899 -2.70683 219.797 54.1768 133.358ZM127.538 192.523C129.301 214.555 134.849 231.453 145.208 262.052C94.3196 266.122 39.0675 210.631 78.0079 148.817C125.732 90.4778 197.536 132.762 206.144 176.855C178.763 187.688 161.575 190.834 127.538 192.523Z" fill="#E32C5D"/>
<path fill-rule="evenodd" clip-rule="evenodd" d="M54.1768 133.358C105.893 62.1498 216.788 88.4614 228.542 186.844C195.229 205.217 177.985 206.672 147.436 207.981C154.328 232.642 159.987 247.309 171.3 274.038C93.3805 309.899 -2.70683 219.797 54.1768 133.358ZM127.538 192.523C129.301 214.555 134.849 231.453 145.208 262.052C94.3196 266.122 39.0675 210.631 78.0079 148.817C125.732 90.4778 197.536 132.762 206.144 176.855C178.763 187.688 161.575 190.834 127.538 192.523Z" fill="#E32C5D"/>
<path d="M1328.8 376.352C1333.97 364.747 1333.92 358.272 1324 350.413L1323.94 350.441C1322.61 351.043 1321.85 351.389 1321.05 352.104C1325.13 360.16 1325.54 365.237 1325.79 375.752C1326.45 376.179 1327.15 376.29 1328.8 376.352Z" fill="#1D8FB3"/>
<path fill-rule="evenodd" clip-rule="evenodd" d="M1358.78 399.169C1387.12 350.102 1341.71 291.335 1280.2 309.909C1278.26 334.381 1282.03 344.959 1289.46 363.368C1272.98 365.69 1262.76 366.148 1243.87 366.392C1243.54 421.787 1322.81 455.244 1358.78 399.169ZM1303.98 371.127C1290.44 375.801 1278.92 376.903 1257.99 378.716C1269.25 409.873 1317.02 428.156 1343.21 389.084C1364.98 345.717 1320.61 314.217 1292.14 320.566C1293.08 339.573 1295.83 350.556 1303.98 371.127Z" fill="#1D8FB3"/>
<path fill-rule="evenodd" clip-rule="evenodd" d="M1358.78 399.169C1387.12 350.102 1341.71 291.335 1280.2 309.909C1278.26 334.381 1282.03 344.959 1289.46 363.368C1272.98 365.69 1262.76 366.148 1243.87 366.392C1243.54 421.787 1322.81 455.244 1358.78 399.169ZM1303.98 371.127C1290.44 375.801 1278.92 376.903 1257.99 378.716C1269.25 409.873 1317.02 428.156 1343.21 389.084C1364.98 345.717 1320.61 314.217 1292.14 320.566C1293.08 339.573 1295.83 350.556 1303.98 371.127Z" fill="#1D8FB3"/>
<path d="M1432.24 56.531C1417.9 53.8292 1410.72 55.5009 1404.74 68.1696L1404.79 68.2305C1405.83 69.5122 1406.43 70.2495 1407.44 70.9338C1415.26 64.5205 1420.79 62.8088 1432.41 59.9235C1432.7 59.1119 1432.63 58.3193 1432.24 56.531Z" fill="#FEC74F"/>
<path fill-rule="evenodd" clip-rule="evenodd" d="M1449.26 18.4645C1386.85 0.0795612 1334.15 63.7498 1371.9 125.554C1399.64 121.561 1410.35 114.855 1428.75 102.244C1435.91 119.462 1439.26 130.386 1444.79 150.729C1506.45 137.293 1521.6 43.3614 1449.26 18.4645ZM1433.34 84.6358C1442.3 98.0963 1446.72 110.255 1454.56 132.411C1486.06 112.491 1493.1 56.3587 1442.39 37.7944C1388.13 25.0741 1365.45 80.8416 1380.43 110.002C1401.29 104.262 1412.74 98.5544 1433.34 84.6358Z" fill="#FEC74F"/>
<path fill-rule="evenodd" clip-rule="evenodd" d="M1449.26 18.4645C1386.85 0.0795612 1334.15 63.7498 1371.9 125.554C1399.64 121.561 1410.35 114.855 1428.75 102.244C1435.91 119.462 1439.26 130.386 1444.79 150.729C1506.45 137.293 1521.6 43.3614 1449.26 18.4645ZM1433.34 84.6358C1442.3 98.0963 1446.72 110.255 1454.56 132.411C1486.06 112.491 1493.1 56.3587 1442.39 37.7944C1388.13 25.0741 1365.45 80.8416 1380.43 110.002C1401.29 104.262 1412.74 98.5544 1433.34 84.6358Z" fill="#FEC74F"/>
<path d="M575.001 438.02H584.001C579.858 432.946 576.655 429.409 571.001 429.02C565.347 428.631 557.906 433.929 558.001 441.02C558.123 450.155 563.587 451.085 571.001 452.02C578.415 452.955 586.425 442.491 584.001 443.02H575.001C575.001 443.02 572.734 444.804 571.001 445.02C567.877 445.411 564.319 444.153 564.001 441.02C563.662 437.678 567.662 435.653 571.001 436.02C572.737 436.211 575.001 438.02 575.001 438.02Z" fill="#FFF5D7"/>
<path d="M914.001 438.02H923.001C918.858 432.946 915.655 429.409 910.001 429.02C904.347 428.631 896.906 433.929 897.001 441.02C897.123 450.155 902.587 451.085 910.001 452.02C917.415 452.955 925.425 442.491 923.001 443.02H914.001C914.001 443.02 911.734 444.804 910.001 445.02C906.877 445.411 903.319 444.153 903.001 441.02C902.662 437.678 906.662 435.653 910.001 436.02C911.737 436.211 914.001 438.02 914.001 438.02Z" fill="#FFF5D7"/>
<path d="M668.001 438.02H677.001C672.858 432.946 669.655 429.409 664.001 429.02C658.347 428.631 650.906 433.929 651.001 441.02C651.123 450.155 656.587 451.085 664.001 452.02C671.415 452.955 679.425 442.491 677.001 443.02H668.001C668.001 443.02 665.734 444.804 664.001 445.02C660.877 445.411 657.319 444.153 657.001 441.02C656.662 437.678 660.662 435.653 664.001 436.02C665.737 436.211 668.001 438.02 668.001 438.02Z" fill="#FFF5D7"/>
<path d="M587 452V430H615V452H607V436H595V452H587Z" fill="#FFF5D7"/>
<path fill-rule="evenodd" clip-rule="evenodd" d="M626.5 452V450C630.167 449.833 637.5 449.6 637.5 450V452H647.5V429H633.5L618 452H626.5ZM638.5 443H630.5L637 433.5H638.5V443Z" fill="#FFF5D7"/>
<path fill-rule="evenodd" clip-rule="evenodd" d="M827.5 452V450C831.167 449.833 838.5 449.6 838.5 450V452H848.5V429H834.5L819 452H827.5ZM839.5 443H831.5L838 433.5H839.5V443Z" fill="#FFF5D7"/>
<path fill-rule="evenodd" clip-rule="evenodd" d="M745 440.414C745.048 432.944 752.092 429.665 758.728 429.077C766.184 428.416 774.949 432.02 775 440.414C775.051 448.844 766.216 452.592 758.728 451.924C752.057 451.33 744.952 447.924 745 440.414ZM758.728 437.991C758.728 437.991 753.07 437.772 753.098 440.414C753.126 443.044 758.728 442.751 758.728 442.751C758.728 442.751 764.021 442.918 764.049 440.414C764.077 437.897 758.728 437.991 758.728 437.991Z" fill="#FFF5D7"/>
<path d="M681.012 429H689.067L689.109 440.146L695.776 429H708V452H699.861V441.031L693.395 452H681L681.012 429Z" fill="#FFF5D7"/>
<path fill-rule="evenodd" clip-rule="evenodd" d="M712 452V429H735V436H720.662C720.071 436.464 720.057 436.714 720.662 437.129H735C735.609 437.083 741.92 440.366 742 444.5C742.079 448.552 735.75 452.111 735 452H712ZM727.5 443C724.628 442.907 720.513 443.821 720.662 444.187C720.248 444.547 724.27 445.047 727.5 445C730.057 444.963 734.017 444.431 734 444.187C734.179 443.88 730.35 443.093 727.5 443Z" fill="#FFF5D7"/>
<path d="M808.784 443.899H798.125C797.901 441.317 797.841 439.853 798.125 437.154H806.416C806.967 436.18 807.069 435.603 806.416 434.456C800.026 434.144 796.377 434.193 789.835 434.456C786.655 432.085 792.941 430.015 802.27 429.06C809.752 428.294 814.706 435.13 814.706 435.13C815.415 436.688 815.4 437.572 814.114 439.177C816.095 440.849 816.148 442.145 815.89 444.573C815.996 445.959 810.511 452.249 802.863 451.992C794.936 451.726 787.953 448.926 789.835 445.247C797.283 445.48 801.439 445.517 808.784 445.247C809.117 444.749 809.149 444.455 808.784 443.899Z" fill="#FFF5D7"/>
<path fill-rule="evenodd" clip-rule="evenodd" d="M865 451.944V429H883.49C888.738 430.814 890.024 432.892 889.237 438.477C894.926 442.181 894.939 447.329 888.987 451.944H865ZM874.245 445.46C874.011 444.745 873.98 444.318 874.245 443.465C879.125 443.223 881.859 443.235 886.738 443.465C887.06 444.261 887.073 444.698 886.738 445.46C881.844 445.663 879.106 445.67 874.245 445.46ZM881.741 435.484C878.837 435.309 877.201 435.301 874.245 435.484C874.052 436.087 874.082 436.412 874.245 436.98C877.206 437.208 878.847 437.206 881.741 436.98C882.028 436.381 882.028 436.051 881.741 435.484Z" fill="#FFF5D7"/>
<path fill-rule="evenodd" clip-rule="evenodd" d="M935.875 443.885V442.533C935.875 442.533 950.769 442.563 952.634 442.533C954.499 442.503 949.029 428.495 940.804 429.014C937.058 429.25 926.803 432.23 927.003 440.505C927.203 448.78 933.815 451.794 940.804 451.996C947.794 452.199 952.634 443.885 952.634 443.885C945.994 445.273 942.336 445.086 935.875 443.885ZM945.734 438.477H935.875C935.642 438.17 937.611 435.643 940.804 435.774C943.998 435.905 946.189 438.31 945.734 438.477Z" fill="#FFF5D7"/>
</svg>
