<svg width="1920" height="197" viewBox="0 0 1920 197" fill="none" xmlns="http://www.w3.org/2000/svg">
<path d="M320.969 11.456C305.474 7.75107 289.783 3.93218 273.882 0H234.353L256.017 40.9468L320.969 11.456Z" fill="#FEC74F"/>
<path d="M598.588 68.5009L573.177 165.885C606.071 171.295 639.07 176.014 672.177 180.031L688.941 81.6929C659.263 77.9043 629.198 73.5044 598.588 68.5009Z" fill="#FEC74F"/>
<path d="M783.041 91.7413L776.471 190.321C810.237 192.888 844.118 194.722 878.118 195.811L880.941 97.738C848.428 96.5389 815.872 94.5362 783.041 91.7413Z" fill="#FEC74F"/>
<path d="M1262.12 76.0226C1228.49 80.8181 1195.62 84.8553 1163.29 88.1435L1163.51 89.6259L1220.49 130.142L1262.12 76.0226Z" fill="#FEC74F"/>
<path d="M1177.41 186.152C1212.1 182.814 1246.93 178.698 1281.88 173.79L1220.49 130.142L1177.41 186.152Z" fill="#FEC74F"/>
<path d="M1533.18 25.2832L1569.88 116.021C1600.83 107.966 1631.89 99.2913 1663.06 89.9905L1623.53 4.14032C1592.64 11.6432 1562.55 18.6894 1533.18 25.2832Z" fill="#FEC74F"/>
<path d="M1733.65 0L1761.88 58.5205C1791.9 48.3633 1822.01 37.6264 1852.24 26.3028L1826.82 0H1733.65Z" fill="#FEC74F"/>
<path d="M283.856 100.044C285.205 100.436 286.555 100.827 287.904 101.217L256.017 40.9468L192 70.0131L283.856 100.044Z" fill="#FEC74F"/>
<path d="M0 0C31.9169 13.2135 63.9156 25.8009 96 37.7503L118.588 0H59.2941H0Z" fill="#FFF5D7"/>
<path d="M412.235 32.4309L379.662 125.892C412.07 133.958 444.573 141.361 477.176 148.088L505.412 51.7753C475.04 45.8665 444.027 39.4161 412.235 32.4309Z" fill="#FFF5D7"/>
<path d="M783.041 91.7413C751.985 89.0976 720.684 85.7449 688.941 81.6929L730.861 133.717L783.041 91.7413Z" fill="#FFF5D7"/>
<path d="M673.144 180.148C707.469 184.298 741.91 187.693 776.471 190.321L730.861 133.717L673.144 180.148Z" fill="#FFF5D7"/>
<path d="M974.118 98.966V196.899C1041.4 196.27 1109.15 192.719 1177.41 186.152L1075.76 193.14L1070.12 95.636C1037.81 97.5238 1005.88 98.6304 974.118 98.966Z" fill="#FFF5D7"/>
<path d="M1663.06 89.9905C1695.88 80.1981 1728.82 69.7112 1761.88 58.5205L1692.54 31.2651L1663.06 89.9905Z" fill="#FFF5D7"/>
<path d="M1640.47 0C1634.8 1.39524 1629.15 2.77533 1623.53 4.14032L1692.54 31.2651L1708.24 0H1640.47Z" fill="#FFF5D7"/>
<path d="M1349.65 62.1358L1375.06 156.926L1473.88 139.109L1442.82 44.5839C1410.99 51.0131 1379.98 56.8617 1349.65 62.1358Z" fill="#FFF5D7"/>
<path d="M118.588 0L96 37.7503C158.286 60.9479 220.896 81.741 283.856 100.044L192 70.0131L225.882 0H118.588Z" fill="#E32C5D"/>
<path d="M320.969 11.456L288.051 101.259C318.505 110.056 349.04 118.27 379.662 125.892L412.235 32.4309C382.531 25.9043 352.147 18.9109 320.969 11.456Z" fill="#E32C5D"/>
<path d="M688.941 81.6929L672.177 180.031L673.144 180.148L730.861 133.717L688.941 81.6929Z" fill="#E32C5D"/>
<path d="M776.471 190.321L783.041 91.7413L730.861 133.717L776.471 190.321Z" fill="#E32C5D"/>
<path d="M1070.12 95.636L1075.76 193.14L1177.41 186.152L1163.51 89.6259L1163.29 88.1435C1131.77 91.3503 1100.77 93.8448 1070.12 95.636Z" fill="#E32C5D"/>
<path d="M1262.12 76.0226L1272 124.906L1281.88 173.79C1345.43 164.868 1409.42 153.332 1473.88 139.109L1375.06 156.926L1349.65 62.1358C1319.85 67.3172 1290.71 71.9442 1262.12 76.0226Z" fill="#E32C5D"/>
<path d="M1623.53 4.14032L1663.06 89.9905L1692.54 31.2651L1623.53 4.14032Z" fill="#E32C5D"/>
<path d="M1761.88 58.5205L1733.65 0H1708.24L1692.54 31.2651L1761.88 58.5205Z" fill="#E32C5D"/>
<path d="M225.882 0L192 70.0131L256.017 40.9468L234.353 0H225.882Z" fill="#1D8FB3"/>
<path d="M320.969 11.456L256.017 40.9468L287.904 101.217L288.051 101.259L320.969 11.456Z" fill="#1D8FB3"/>
<path d="M505.412 51.7753L477.176 148.088C509.08 154.671 541.079 160.607 573.177 165.885L598.588 68.5009C568.122 63.521 537.116 57.9432 505.412 51.7753Z" fill="#1D8FB3"/>
<path d="M880.941 97.738L878.118 195.811C910.012 196.833 942.011 197.198 974.118 196.899V98.966C942.964 99.2951 911.972 98.8825 880.941 97.738Z" fill="#1D8FB3"/>
<path d="M1163.51 89.6259L1177.41 186.152L1220.49 130.142L1163.51 89.6259Z" fill="#1D8FB3"/>
<path d="M1281.88 173.79L1272 124.906L1262.12 76.0226L1220.49 130.142L1281.88 173.79Z" fill="#1D8FB3"/>
<path d="M1442.82 44.5839L1473.88 139.109C1505.77 132.073 1537.77 124.38 1569.88 116.021L1533.18 25.2832C1502.3 32.2152 1472.21 38.6471 1442.82 44.5839Z" fill="#1D8FB3"/>
<path d="M1920 0H1873.41H1826.82L1852.24 26.3028C1874.76 17.8621 1897.35 9.09545 1920 0Z" fill="#1D8FB3"/>
</svg>
