<svg width="1920" height="638" viewBox="0 0 1920 638" fill="none" xmlns="http://www.w3.org/2000/svg">
<path d="M937.298 221.848C938.301 207.588 941.738 201.193 955.538 198.655L955.585 198.717C956.566 200.017 957.13 200.765 957.537 201.897C949.339 207.727 946.282 212.544 940.546 222.846C939.685 222.923 938.934 222.658 937.298 221.848Z" fill="#FFF5D7"/>
<path fill-rule="evenodd" clip-rule="evenodd" d="M896.069 228.582C894.013 164.867 969.094 130.641 1019.5 181.697C1008.62 207.01 999.407 215.506 982.524 229.829C997.415 240.874 1007.16 246.749 1025.5 257.013C996.881 312.152 901.936 303.307 896.069 228.582ZM964.283 229.829C975.076 241.649 985.751 248.849 1005.26 261.751C977.977 286.692 921.747 279.5 916.559 226.836C917.934 172.256 977.762 164.538 1002.26 185.936C991.421 204.3 982.992 213.737 964.283 229.829Z" fill="#FFF5D7"/>
<path d="M1033.32 256.015C1033.74 255.162 1034.14 254.791 1035.07 254.269C1040.17 258.562 1045.23 260.672 1044.57 265.741C1043.41 268.358 1042.36 268.479 1040.57 268.983C1039.85 263.328 1037.22 260.491 1033.32 256.015Z" fill="#FFF5D7"/>
<path d="M1032.57 248.782C1032.02 249.535 1031.88 250.017 1032.07 251.027C1046.83 255.422 1052.18 258.998 1059.06 263.247C1061.04 262.714 1062.01 262.155 1063.56 260.753C1064.05 252.208 1051.73 250.543 1032.57 248.782Z" fill="#FFF5D7"/>
<path d="M1031.07 174.963H1056.43L1056.56 206.386L1077.55 174.963H1116.03V239.804H1090.41V208.88L1070.05 239.804H1031.04L1031.07 174.963Z" fill="#FFF5D7"/>
<path fill-rule="evenodd" clip-rule="evenodd" d="M896.069 228.582C894.013 164.867 969.094 130.641 1019.5 181.697C1008.62 207.01 999.407 215.506 982.524 229.829C997.415 240.874 1007.16 246.749 1025.5 257.013C996.881 312.152 901.936 303.307 896.069 228.582ZM964.283 229.829C975.076 241.649 985.751 248.849 1005.26 261.751C977.977 286.692 921.747 279.5 916.559 226.836C917.934 172.256 977.762 164.538 1002.26 185.936C991.421 204.3 982.992 213.737 964.283 229.829Z" fill="#FFF5D7"/>
<path d="M1031.07 174.963H1056.43L1056.56 206.386L1077.55 174.963H1116.03V239.804H1090.41V208.88L1070.05 239.804H1031.04L1031.07 174.963Z" fill="#FFF5D7"/>
<path d="M1162.5 203.018H1128.02C1128.72 175.582 1162.35 175.931 1178 175.087C1193.64 174.242 1222.18 179.167 1223.47 207.507C1224.76 235.848 1182.83 241.719 1176.25 239.928C1144.52 238.513 1128.9 230.11 1128.02 211.498H1162.5C1166.61 217.09 1170.42 218.348 1178.49 218.979C1186.66 218.777 1189.65 217.804 1192.99 214.989H1176.5V200.026H1192.99C1190.24 197.51 1187.91 196.357 1178.49 196.035C1169.3 196.101 1166.36 198.132 1162.5 203.018Z" fill="#FFF5D7"/>
<path fill-rule="evenodd" clip-rule="evenodd" d="M696.001 242.921C696.157 221.397 718.979 211.946 740.478 210.251C764.637 208.346 793.034 218.734 793.199 242.921C793.365 267.212 764.739 278.013 740.478 276.09C718.864 274.376 695.844 264.561 696.001 242.921ZM740.478 235.938C740.478 235.938 722.145 235.307 722.237 242.921C722.328 250.501 740.478 249.655 740.478 249.655C740.478 249.655 757.628 250.137 757.718 242.921C757.809 235.67 740.478 235.938 740.478 235.938Z" fill="#FFF5D7"/>
<path d="M804.693 275.342V210.999H838.175V240.926L858.165 210.999H883.151L864.411 240.926H874.656L896.894 275.342H861.663L847.92 254.144H838.675V275.342H804.693Z" fill="#FFF5D7"/>
<path fill-rule="evenodd" clip-rule="evenodd" d="M701.498 198.53V175.586H719.988C725.236 177.4 726.522 179.478 725.735 185.063C731.424 188.767 731.437 193.915 725.485 198.53H701.498ZM710.743 192.046C710.508 191.331 710.478 190.904 710.743 190.051C715.623 189.809 718.357 189.821 723.236 190.051C723.558 190.847 723.57 191.284 723.236 192.046C718.342 192.249 715.603 192.256 710.743 192.046ZM718.239 182.07C715.335 181.895 713.699 181.887 710.743 182.07C710.55 182.673 710.58 182.998 710.743 183.566C713.704 183.794 715.345 183.792 718.239 183.566C718.526 182.967 718.526 182.637 718.239 182.07Z" fill="#FFF5D7"/>
<path d="M746.224 176.085C739.436 176.43 732.88 180.276 732.731 187.058C732.58 193.965 739.311 198.174 746.224 198.53C753.592 198.909 761.374 194.42 761.216 187.058H751.721C751.77 190.079 749.714 191.593 746.224 191.547C743.058 191.505 739.31 190.214 739.478 187.058C739.64 184.006 743.164 182.944 746.224 183.068C749.466 183.199 751.522 184.458 751.721 187.058H761.216C761.061 179.813 753.475 175.716 746.224 176.085Z" fill="#FFF5D7"/>
<path d="M768.212 199.029V182.569H761.716V175.087H784.204V182.569H777.707V199.029H768.212Z" fill="#FFF5D7"/>
<path d="M839.175 199.029V182.569H832.678V175.087H855.666V182.569H849.169V199.029H839.175Z" fill="#FFF5D7"/>
<path d="M806.692 189.801H813.688C813.688 189.801 816.223 192.002 818.186 192.046C820.89 192.106 824.028 189.934 823.683 190.051H817.686V185.063H823.683C824.261 184.862 821.073 182.113 818.186 182.569C815.299 183.025 815.072 183.141 813.688 184.564H806.692C808.16 178.153 812.379 175.503 818.186 175.087C825.291 174.579 832.003 179.949 831.929 187.058C831.855 194.104 825.245 198.67 818.186 198.779C812.5 198.867 805.062 193.067 806.692 189.801Z" fill="#FFF5D7"/>
<path d="M871.158 175.586C864.124 176.063 857.516 180.522 857.665 187.557C857.811 194.464 864.251 198.564 871.158 199.029C878.674 199.534 886.495 195.074 886.65 187.557H877.155C876.024 190.129 873.972 191.494 871.158 191.547C868.262 191.601 865.144 190.438 864.911 187.557C864.665 184.508 868.094 182.758 871.158 182.818C874.144 182.877 876.412 184.669 877.155 187.557H886.65C886.806 179.922 878.791 175.068 871.158 175.586Z" fill="#FFF5D7"/>
<path d="M1078.82 258.592V275.946H1094.46V251H1080.38L1071 258.592H1078.82Z" fill="#FFF5D7"/>
<path d="M1136.69 251H1103.84V267.269L1104.02 267.267C1113.07 267.148 1118.2 267.081 1127.3 267.269C1127.88 267.559 1127.83 267.808 1127.3 268.354C1118.14 268.812 1113 268.734 1103.84 268.354C1101.23 269.308 1110.16 276.699 1121.83 275.946C1132.88 275.234 1137.38 273.32 1139.81 267.812C1141.6 263.758 1130.06 259.825 1128.87 259.677H1113.23C1112.74 259.329 1112.57 259.117 1113.23 258.592H1136.69V251Z" fill="#FFF5D7"/>
<path d="M1207.52 264.87H1200.3V260H1223V264.87H1215.78V276H1207.52V264.87Z" fill="#FFF5D7"/>
<path d="M1174.5 276V260H1197.2V264.87H1182.76V265.565H1194.11V270.435H1182.76V271.13H1197.2V276H1174.5Z" fill="#FFF5D7"/>
<path d="M1162.12 276V262.435L1149.74 276H1142L1158.51 260H1171.41V276H1162.12Z" fill="#FFF5D7"/>
<path d="M773.001 392.02H782.001C777.858 386.946 774.655 383.409 769.001 383.02C763.347 382.631 755.906 387.929 756.001 395.02C756.123 404.155 761.587 405.085 769.001 406.02C776.415 406.955 784.425 396.491 782.001 397.02H773.001C773.001 397.02 770.734 398.804 769.001 399.02C765.877 399.411 762.319 398.153 762.001 395.02C761.662 391.678 765.662 389.653 769.001 390.02C770.737 390.211 773.001 392.02 773.001 392.02Z" fill="#FFF5D7"/>
<path d="M1112 392.02H1121C1116.86 386.946 1113.66 383.409 1108 383.02C1102.35 382.631 1094.91 387.929 1095 395.02C1095.12 404.155 1100.59 405.085 1108 406.02C1115.41 406.955 1123.42 396.491 1121 397.02H1112C1112 397.02 1109.73 398.804 1108 399.02C1104.88 399.411 1101.32 398.153 1101 395.02C1100.66 391.678 1104.66 389.653 1108 390.02C1109.74 390.211 1112 392.02 1112 392.02Z" fill="#FFF5D7"/>
<path d="M866.001 392.02H875.001C870.858 386.946 867.655 383.409 862.001 383.02C856.347 382.631 848.906 387.929 849.001 395.02C849.123 404.155 854.587 405.085 862.001 406.02C869.415 406.955 877.425 396.491 875.001 397.02H866.001C866.001 397.02 863.734 398.804 862.001 399.02C858.877 399.411 855.319 398.153 855.001 395.02C854.662 391.678 858.662 389.653 862.001 390.02C863.737 390.211 866.001 392.02 866.001 392.02Z" fill="#FFF5D7"/>
<path d="M785 406V384H813V406H805V390H793V406H785Z" fill="#FFF5D7"/>
<path fill-rule="evenodd" clip-rule="evenodd" d="M824.5 406V404C828.167 403.833 835.5 403.6 835.5 404V406H845.5V383H831.5L816 406H824.5ZM836.5 397H828.5L835 387.5H836.5V397Z" fill="#FFF5D7"/>
<path fill-rule="evenodd" clip-rule="evenodd" d="M1025.5 406V404C1029.17 403.833 1036.5 403.6 1036.5 404V406H1046.5V383H1032.5L1017 406H1025.5ZM1037.5 397H1029.5L1036 387.5H1037.5V397Z" fill="#FFF5D7"/>
<path fill-rule="evenodd" clip-rule="evenodd" d="M943 394.414C943.048 386.944 950.092 383.665 956.728 383.077C964.184 382.416 972.949 386.02 973 394.414C973.051 402.844 964.216 406.592 956.728 405.924C950.057 405.33 942.952 401.924 943 394.414ZM956.728 391.991C956.728 391.991 951.07 391.772 951.098 394.414C951.126 397.044 956.728 396.751 956.728 396.751C956.728 396.751 962.021 396.918 962.049 394.414C962.077 391.897 956.728 391.991 956.728 391.991Z" fill="#FFF5D7"/>
<path d="M879.012 383H887.067L887.109 394.146L893.776 383H906V406H897.861V395.031L891.395 406H879L879.012 383Z" fill="#FFF5D7"/>
<path fill-rule="evenodd" clip-rule="evenodd" d="M910 406V383H933V390H918.662C918.071 390.464 918.057 390.714 918.662 391.129H933C933.609 391.083 939.92 394.366 940 398.5C940.079 402.552 933.75 406.111 933 406H910ZM925.5 397C922.628 396.907 918.513 397.821 918.662 398.187C918.248 398.547 922.27 399.047 925.5 399C928.057 398.963 932.017 398.431 932 398.187C932.179 397.88 928.35 397.093 925.5 397Z" fill="#FFF5D7"/>
<path d="M1006.78 397.899H996.125C995.901 395.317 995.841 393.853 996.125 391.154H1004.42C1004.97 390.18 1005.07 389.603 1004.42 388.456C998.026 388.144 994.377 388.193 987.835 388.456C984.655 386.085 990.941 384.015 1000.27 383.06C1007.75 382.294 1012.71 389.13 1012.71 389.13C1013.42 390.688 1013.4 391.572 1012.11 393.177C1014.1 394.849 1014.15 396.145 1013.89 398.573C1014 399.959 1008.51 406.249 1000.86 405.992C992.936 405.726 985.953 402.926 987.835 399.247C995.283 399.48 999.439 399.517 1006.78 399.247C1007.12 398.749 1007.15 398.455 1006.78 397.899Z" fill="#FFF5D7"/>
<path fill-rule="evenodd" clip-rule="evenodd" d="M1063 405.944V383H1081.49C1086.74 384.814 1088.02 386.892 1087.24 392.477C1092.93 396.181 1092.94 401.329 1086.99 405.944H1063ZM1072.25 399.46C1072.01 398.745 1071.98 398.318 1072.25 397.465C1077.13 397.223 1079.86 397.235 1084.74 397.465C1085.06 398.261 1085.07 398.698 1084.74 399.46C1079.84 399.663 1077.11 399.67 1072.25 399.46ZM1079.74 389.484C1076.84 389.309 1075.2 389.301 1072.25 389.484C1072.05 390.087 1072.08 390.412 1072.25 390.98C1075.21 391.208 1076.85 391.206 1079.74 390.98C1080.03 390.381 1080.03 390.051 1079.74 389.484Z" fill="#FFF5D7"/>
<path fill-rule="evenodd" clip-rule="evenodd" d="M1133.88 397.885V396.533C1133.88 396.533 1148.77 396.563 1150.63 396.533C1152.5 396.503 1147.03 382.495 1138.8 383.014C1135.06 383.25 1124.8 386.23 1125 394.505C1125.2 402.78 1131.82 405.794 1138.8 405.996C1145.79 406.199 1150.63 397.885 1150.63 397.885C1143.99 399.273 1140.34 399.086 1133.88 397.885ZM1143.73 392.477H1133.88C1133.64 392.17 1135.61 389.643 1138.8 389.774C1142 389.905 1144.19 392.31 1143.73 392.477Z" fill="#FFF5D7"/>
<path d="M1154 402V406H1163V402H1154Z" fill="#FFF5D7"/>
<path d="M1154 400H1163V383H1154V400Z" fill="#FFF5D7"/>
<path d="M339.5 118.997C335.8 103.731 308.647 97.4207 307 66.9971C307.113 45.4699 319.512 38.5242 319.5 30.4971L318.5 1.99707C329.17 0.353269 340.407 0.0957414 350.5 0V495H290.5V407C292.339 405.669 292.605 404.756 292.5 403C288.89 389.166 291.275 384.181 297.5 367L307 376C312.807 355.9 312.56 344.977 307 326C303.112 316.734 299.977 311.447 289 301.5V160.5C293.819 149.853 301.548 149.982 320 148V138C333.626 132.637 337.513 128.345 339.5 118.997Z" fill="#FFF5D7"/>
<path d="M361 118.997C364.7 103.731 391.853 97.4208 393.5 66.9972C393.387 45.47 380.988 38.5243 381 30.4972L382 1.99719C371.33 0.353391 360.093 0.0958635 350 0.00012207V495H410V407C408.161 405.669 407.895 404.756 408 403C411.61 389.166 409.225 384.181 403 367L393.5 376C387.693 355.901 387.94 344.977 393.5 326C397.388 316.734 400.523 311.447 411.5 301.5V160.5C406.681 149.853 398.952 149.983 380.5 148V138C366.874 132.637 362.987 128.345 361 118.997Z" fill="#FFF5D7"/>
<path d="M1558.5 118.997C1554.8 103.731 1527.65 97.4207 1526 66.9971C1526.11 45.4699 1538.51 38.5242 1538.5 30.4971L1537.5 1.99707C1548.17 0.353269 1559.41 0.0957414 1569.5 0V495H1509.5V407C1511.34 405.669 1511.6 404.756 1511.5 403C1507.89 389.166 1510.28 384.181 1516.5 367L1526 376C1531.81 355.9 1531.56 344.977 1526 326C1522.11 316.734 1518.98 311.447 1508 301.5V160.5C1512.82 149.853 1520.55 149.982 1539 148V138C1552.63 132.637 1556.51 128.345 1558.5 118.997Z" fill="#FFF5D7"/>
<path d="M1580 118.997C1583.7 103.731 1610.85 97.4208 1612.5 66.9972C1612.39 45.47 1599.99 38.5243 1600 30.4972L1601 1.99719C1590.33 0.353391 1579.09 0.0958635 1569 0.00012207V495H1629V407C1627.16 405.669 1626.9 404.756 1627 403C1630.61 389.166 1628.22 384.181 1622 367L1612.5 376C1606.69 355.901 1606.94 344.977 1612.5 326C1616.39 316.734 1619.52 311.447 1630.5 301.5V160.5C1625.68 149.853 1617.95 149.983 1599.5 148V138C1585.87 132.637 1581.99 128.345 1580 118.997Z" fill="#FFF5D7"/>
<path d="M0 528C740.586 423.276 1160.9 422.458 1920 528V637.5H9.5L0 528Z" fill="url(#paint0_linear_31_11)"/>
<defs>
<linearGradient id="paint0_linear_31_11" x1="960" y1="449" x2="960" y2="604" gradientUnits="userSpaceOnUse">
<stop stop-color="#FFF5D7"/>
<stop offset="1" stop-color="#47B283"/>
</linearGradient>
</defs>
</svg>
