<svg width="528" height="250" viewBox="0 0 528 250" fill="none" xmlns="http://www.w3.org/2000/svg">
<path d="M241.298 64.8483C242.301 50.5881 245.738 44.1927 259.538 41.6551L259.585 41.7168C260.566 43.0169 261.13 43.7648 261.537 44.8971C253.339 50.7267 250.282 55.5441 244.546 65.8459C243.685 65.9229 242.934 65.6583 241.298 64.8483Z" fill="#FFF5D7"/>
<path fill-rule="evenodd" clip-rule="evenodd" d="M200.069 71.5822C198.013 7.86689 273.094 -26.3592 323.504 24.697C312.619 50.0102 303.407 58.506 286.524 72.8292C301.415 83.8738 311.164 89.7494 329.501 100.013C300.881 155.152 205.936 146.307 200.069 71.5822ZM268.283 72.8287C279.076 84.6485 289.751 91.8493 309.262 104.751C281.977 129.692 225.747 122.5 220.559 69.8361C221.934 15.2562 281.762 7.53773 306.263 28.9362C295.421 47.3001 286.992 56.7374 268.283 72.8287Z" fill="#FFF5D7"/>
<path d="M337.323 99.0147C337.745 98.1624 338.144 97.7912 339.072 97.2689C344.173 101.562 349.234 103.672 348.567 108.741C347.412 111.358 346.359 111.479 344.569 111.983C343.854 106.328 341.22 103.491 337.323 99.0147Z" fill="#FFF5D7"/>
<path d="M336.573 91.7824C336.018 92.535 335.881 93.017 336.073 94.0269C350.833 98.4223 356.182 101.998 363.059 106.247C365.036 105.714 366.01 105.155 367.557 103.753C368.053 95.2082 355.729 93.5429 336.573 91.7824Z" fill="#FFF5D7"/>
<path d="M335.074 17.9631H360.429L360.56 49.3861L381.549 17.9631H420.029V82.8043H394.407V51.88L374.053 82.8043H335.035L335.074 17.9631Z" fill="#FFF5D7"/>
<path fill-rule="evenodd" clip-rule="evenodd" d="M200.069 71.5822C198.013 7.86689 273.094 -26.3592 323.504 24.697C312.619 50.0102 303.407 58.506 286.524 72.8292C301.415 83.8738 311.164 89.7494 329.501 100.013C300.881 155.152 205.936 146.307 200.069 71.5822ZM268.283 72.8287C279.076 84.6485 289.751 91.8493 309.262 104.751C281.977 129.692 225.747 122.5 220.559 69.8361C221.934 15.2562 281.762 7.53773 306.263 28.9362C295.421 47.3001 286.992 56.7374 268.283 72.8287Z" fill="#FFF5D7"/>
<path d="M335.074 17.9631H360.429L360.56 49.3861L381.549 17.9631H420.029V82.8043H394.407V51.88L374.053 82.8043H335.035L335.074 17.9631Z" fill="#FFF5D7"/>
<path d="M466.503 46.0183H432.022C432.724 18.5823 466.349 18.9311 481.995 18.0867C497.641 17.2424 526.185 22.1666 527.471 50.5074C528.757 78.8483 486.83 84.7193 480.246 82.9279C448.518 81.5127 432.898 73.1098 432.022 54.4976H466.503C470.613 60.0896 474.419 61.3476 482.495 61.9793C490.662 61.7774 493.651 60.8041 496.987 57.9891H480.496V43.0256H496.987C494.236 40.5102 491.915 39.3565 482.495 39.0354C473.301 39.1012 470.355 41.1317 466.503 46.0183Z" fill="#FFF5D7"/>
<path fill-rule="evenodd" clip-rule="evenodd" d="M0.000800428 85.9212C0.157139 64.3969 22.9787 54.9461 44.4779 53.2512C68.637 51.3465 97.0341 61.7337 97.1992 85.9212C97.365 110.212 68.7394 121.013 44.4779 119.09C22.8636 117.376 -0.15638 107.561 0.000800428 85.9212ZM44.4779 78.9383C44.4779 78.9383 26.1454 78.3068 26.2369 85.9212C26.328 93.5012 44.4779 92.6547 44.4779 92.6547C44.4779 92.6547 61.6276 93.1366 61.7181 85.9212C61.8089 78.6696 44.4779 78.9383 44.4779 78.9383Z" fill="#FFF5D7"/>
<path d="M108.693 118.342V53.9993H142.175V83.926L162.165 53.9993H187.151L168.411 83.926H178.656L200.894 118.342H165.663L151.92 97.1437H142.675V118.342H108.693Z" fill="#FFF5D7"/>
<path fill-rule="evenodd" clip-rule="evenodd" d="M5.49793 41.5299V18.586H23.9881C29.2363 20.3998 30.5221 22.4779 29.7351 28.0628C35.4242 31.767 35.4374 36.9149 29.4852 41.5299H5.49793ZM14.743 35.0457C14.5084 34.3315 14.4783 33.9039 14.743 33.0506C19.6233 32.809 22.3569 32.8214 27.2364 33.0506C27.5581 33.8474 27.5704 34.284 27.2364 35.0457C22.3423 35.2492 19.6035 35.2564 14.743 35.0457ZM22.239 25.0702C19.3347 24.8953 17.6987 24.8868 14.743 25.0702C14.5496 25.673 14.5799 25.9984 14.743 26.5665C17.704 26.7945 19.3449 26.7923 22.239 26.5665C22.5258 25.9669 22.5264 25.6366 22.239 25.0702Z" fill="#FFF5D7"/>
<path d="M50.2242 19.0848C43.436 19.4304 36.8799 23.2756 36.7313 30.0579C36.58 36.965 43.3114 41.1743 50.2242 41.5299C57.5918 41.9088 65.3736 37.4196 65.2162 30.0579H55.7212C55.7703 33.079 53.7136 34.5934 50.2242 34.5469C47.058 34.5048 43.3099 33.2139 43.4778 30.0579C43.6401 27.0056 47.1642 25.9442 50.2242 26.0677C53.4656 26.1986 55.5225 27.4576 55.7212 30.0579H65.2162C65.0613 22.8132 57.4751 18.7157 50.2242 19.0848Z" fill="#FFF5D7"/>
<path d="M72.2125 42.0286V25.5689H65.7159V18.0872H88.204V25.5689H81.7074V42.0286H72.2125Z" fill="#FFF5D7"/>
<path d="M143.175 42.0286V25.5689H136.678V18.0872H159.666V25.5689H153.169V42.0286H143.175Z" fill="#FFF5D7"/>
<path d="M110.692 32.8012H117.688C117.688 32.8012 120.223 35.0018 122.186 35.0457C124.89 35.1062 128.028 32.9343 127.683 33.0506H121.686V28.0628H127.683C128.261 27.8624 125.073 25.113 122.186 25.5689C119.299 26.0248 119.072 26.1413 117.688 27.564H110.692C112.16 21.1532 116.379 18.5029 122.186 18.0872C129.291 17.5787 136.003 22.9487 135.929 30.0579C135.855 37.1036 129.245 41.6704 122.186 41.7792C116.5 41.8669 109.062 36.0669 110.692 32.8012Z" fill="#FFF5D7"/>
<path d="M175.158 18.586C168.124 19.063 161.516 23.5217 161.665 30.5567C161.811 37.4639 168.251 41.5644 175.158 42.0286C182.674 42.5339 190.495 38.0739 190.65 30.5567H181.155C180.024 33.1292 177.972 34.4944 175.158 34.5469C172.262 34.601 169.144 33.4381 168.911 30.5567C168.665 27.5084 172.094 25.7579 175.158 25.8183C178.144 25.8773 180.412 27.6691 181.155 30.5567H190.65C190.806 22.9218 182.791 18.0684 175.158 18.586Z" fill="#FFF5D7"/>
<path d="M382.82 101.592V118.946H398.46V94H384.384L375.001 101.592H382.82Z" fill="#FFF5D7"/>
<path d="M440.685 94H407.843V110.269L408.024 110.267C417.073 110.148 422.201 110.081 431.302 110.269C431.879 110.559 431.832 110.808 431.302 111.354C422.139 111.812 417.005 111.734 407.843 111.354C405.226 112.308 414.157 119.699 425.828 118.946C436.877 118.234 441.385 116.32 443.813 110.812C445.6 106.758 434.062 102.825 432.866 102.677H417.227C416.735 102.329 416.574 102.117 417.227 101.592H440.685V94Z" fill="#FFF5D7"/>
<path d="M511.523 107.87H504.3V103H527.001V107.87H519.778V119H511.523V107.87Z" fill="#FFF5D7"/>
<path d="M478.504 119V103H501.204V107.87H486.759V108.565H498.109V113.435H486.759V114.13H501.204V119H478.504Z" fill="#FFF5D7"/>
<path d="M466.122 119V105.435L453.74 119H446.001L462.51 103H475.408V119H466.122Z" fill="#FFF5D7"/>
<path d="M77.0009 235.02H86.0009C81.8577 229.946 78.655 226.409 73.0009 226.02C67.3468 225.631 59.9062 230.929 60.0009 238.02C60.1228 247.155 65.587 248.085 73.0009 249.02C80.4148 249.955 88.4245 239.491 86.0009 240.02H77.0009C77.0009 240.02 74.7339 241.804 73.0009 242.02C69.8767 242.411 66.3187 241.153 66.0009 238.02C65.6618 234.678 69.6617 232.653 73.0009 233.02C74.7369 233.211 77.0009 235.02 77.0009 235.02Z" fill="#FFF5D7"/>
<path d="M416.001 235.02H425.001C420.858 229.946 417.655 226.409 412.001 226.02C406.347 225.631 398.906 230.929 399.001 238.02C399.123 247.155 404.587 248.085 412.001 249.02C419.415 249.955 427.425 239.491 425.001 240.02H416.001C416.001 240.02 413.734 241.804 412.001 242.02C408.877 242.411 405.319 241.153 405.001 238.02C404.662 234.678 408.662 232.653 412.001 233.02C413.737 233.211 416.001 235.02 416.001 235.02Z" fill="#FFF5D7"/>
<path d="M170.001 235.02H179.001C174.858 229.946 171.655 226.409 166.001 226.02C160.347 225.631 152.906 230.929 153.001 238.02C153.123 247.155 158.587 248.085 166.001 249.02C173.415 249.955 181.425 239.491 179.001 240.02H170.001C170.001 240.02 167.734 241.804 166.001 242.02C162.877 242.411 159.319 241.153 159.001 238.02C158.662 234.678 162.662 232.653 166.001 233.02C167.737 233.211 170.001 235.02 170.001 235.02Z" fill="#FFF5D7"/>
<path d="M89 249V227H117V249H109V233H97V249H89Z" fill="#FFF5D7"/>
<path fill-rule="evenodd" clip-rule="evenodd" d="M128.5 249V247C132.167 246.833 139.5 246.6 139.5 247V249H149.5V226H135.5L120 249H128.5ZM140.5 240H132.5L139 230.5H140.5V240Z" fill="#FFF5D7"/>
<path fill-rule="evenodd" clip-rule="evenodd" d="M329.5 249V247C333.167 246.833 340.5 246.6 340.5 247V249H350.5V226H336.5L321 249H329.5ZM341.5 240H333.5L340 230.5H341.5V240Z" fill="#FFF5D7"/>
<path fill-rule="evenodd" clip-rule="evenodd" d="M247 237.414C247.048 229.944 254.092 226.665 260.728 226.077C268.184 225.416 276.949 229.02 277 237.414C277.051 245.844 268.216 249.592 260.728 248.924C254.057 248.33 246.952 244.924 247 237.414ZM260.728 234.991C260.728 234.991 255.07 234.772 255.098 237.414C255.126 240.044 260.728 239.751 260.728 239.751C260.728 239.751 266.021 239.918 266.049 237.414C266.077 234.897 260.728 234.991 260.728 234.991Z" fill="#FFF5D7"/>
<path d="M183.012 226H191.067L191.109 237.146L197.776 226H210V249H201.861V238.031L195.395 249H183L183.012 226Z" fill="#FFF5D7"/>
<path fill-rule="evenodd" clip-rule="evenodd" d="M214 249V226H237V233H222.662C222.071 233.464 222.057 233.714 222.662 234.129H237C237.609 234.083 243.92 237.366 244 241.5C244.079 245.552 237.75 249.111 237 249H214ZM229.5 240C226.628 239.907 222.513 240.821 222.662 241.187C222.248 241.547 226.27 242.047 229.5 242C232.057 241.963 236.017 241.431 236 241.187C236.179 240.88 232.35 240.093 229.5 240Z" fill="#FFF5D7"/>
<path d="M310.784 240.899H300.125C299.901 238.317 299.841 236.853 300.125 234.154H308.416C308.967 233.18 309.069 232.603 308.416 231.456C302.026 231.144 298.377 231.193 291.835 231.456C288.655 229.085 294.941 227.015 304.27 226.06C311.752 225.294 316.706 232.13 316.706 232.13C317.415 233.688 317.4 234.572 316.114 236.177C318.095 237.849 318.148 239.145 317.89 241.573C317.996 242.959 312.511 249.249 304.863 248.992C296.936 248.726 289.953 245.926 291.835 242.247C299.283 242.48 303.439 242.517 310.784 242.247C311.117 241.749 311.149 241.455 310.784 240.899Z" fill="#FFF5D7"/>
<path fill-rule="evenodd" clip-rule="evenodd" d="M367 248.944V226H385.49C390.738 227.814 392.024 229.892 391.237 235.477C396.926 239.181 396.939 244.329 390.987 248.944H367ZM376.245 242.46C376.011 241.745 375.98 241.318 376.245 240.465C381.125 240.223 383.859 240.235 388.738 240.465C389.06 241.261 389.073 241.698 388.738 242.46C383.844 242.663 381.106 242.67 376.245 242.46ZM383.741 232.484C380.837 232.309 379.201 232.301 376.245 232.484C376.052 233.087 376.082 233.412 376.245 233.98C379.206 234.208 380.847 234.206 383.741 233.98C384.028 233.381 384.028 233.051 383.741 232.484Z" fill="#FFF5D7"/>
<path fill-rule="evenodd" clip-rule="evenodd" d="M437.875 240.885V239.533C437.875 239.533 452.769 239.563 454.634 239.533C456.499 239.503 451.029 225.495 442.804 226.014C439.058 226.25 428.803 229.23 429.003 237.505C429.203 245.78 435.815 248.794 442.804 248.996C449.794 249.199 454.634 240.885 454.634 240.885C447.994 242.273 444.336 242.086 437.875 240.885ZM447.734 235.477H437.875C437.642 235.17 439.611 232.643 442.804 232.774C445.998 232.905 448.189 235.31 447.734 235.477Z" fill="#FFF5D7"/>
<path d="M458 245V249H467V245H458Z" fill="#FFF5D7"/>
<path d="M458 243H467V226H458V243Z" fill="#FFF5D7"/>
</svg>
